<svg width="304" height="165" viewBox="0 0 304 165" fill="none" xmlns="http://www.w3.org/2000/svg">
<path d="M285.767 72.146V41.756H265.148V22.963H259.015V23.564H256.242V22.963H250.393V50.139H229.66V75.103H213.301V75.165H194.519V22.963H179.762V50.139H179.584L167.492 10.409L159.152 50.139L159.027 50.74V82.607H142.669V0H124.018V26.831H111.288V51.254H89.867V72.146H72.463V41.756H51.848V22.963H45.711V23.564H42.941V22.963H37.088V50.139H16.357V75.103H0V164.89H213.301H214.337L212.355 164.916H303.168V72.146H285.767Z" fill="#CCE9FF"/>
<path d="M197.07 72.667H210.46H223.848C226.67 72.667 228.955 74.953 228.955 77.771V90.457H223.491V78.927C223.491 78.489 223.134 78.13 222.694 78.13H210.46H198.224C197.784 78.13 197.427 78.488 197.427 78.927V113.342H191.965V77.772C191.965 74.953 194.25 72.667 197.07 72.667Z" fill="#D3D3D3"/>
<path d="M244.169 98.286H208.281V163.27H244.169V98.286Z" fill="#F2F2F2"/>
<path d="M244.169 98.285C244.169 98.285 244.169 89.787 226.223 89.787C208.28 89.787 208.28 98.285 208.28 98.285H244.169Z" fill="#03A4E7"/>
<path d="M200.067 99.466H189.331V103.896H200.067V99.466Z" fill="#03A4E7"/>
<path d="M265.124 106.267H252.852V162.03H265.124V106.267Z" fill="#03A4E7"/>
<path fill-rule="evenodd" clip-rule="evenodd" d="M152.939 22.847C153.045 22.52 153.106 22.184 153.106 21.838C153.106 19.103 149.575 16.88 145.228 16.88C144.734 16.88 144.253 16.907 143.785 16.961C143.309 15.331 141.051 14.102 138.332 14.102C135.589 14.102 133.297 15.359 132.863 17.013C132.278 16.925 131.675 16.88 131.047 16.88C130.563 16.88 130.073 16.907 129.605 16.961C129.136 15.331 126.871 14.102 124.152 14.102C121.259 14.102 118.884 15.499 118.628 17.279C117.929 17.146 117.194 17.084 116.435 17.084C112.08 17.084 108.546 19.308 108.546 22.042C108.546 22.688 108.749 23.308 109.104 23.874C107.253 24.786 106.06 26.204 106.06 27.787C106.06 27.787 105.539 27.949 105.703 28.788C104.531 28.935 103.767 30.448 104.432 31.521C103.941 31.469 103.451 31.441 102.953 31.459C101.634 31.51 100.715 32.933 101.422 34.123C101.578 34.389 101.748 34.632 101.924 34.863C99.728 35.096 97.813 35.83 96.11 38.237C94.791 40.105 97.862 41.872 99.171 40.025C101.048 37.369 104.273 38.359 107.083 38.245C108.423 38.19 109.253 36.63 108.663 35.584C108.824 35.588 108.985 35.594 109.15 35.59C109.799 35.568 110.366 35.2 110.676 34.68C112.509 35.123 114.393 35.094 116.237 34.168C117.063 33.754 117.255 33.012 117.065 32.339C117.202 32.303 117.339 32.271 117.471 32.231C118.11 32.531 118.799 32.796 119.533 33.01L120.285 33.222C121.682 33.585 123.223 33.78 124.828 33.78C127.473 33.78 129.916 33.249 131.916 32.346C133.916 33.248 136.369 33.78 139.008 33.78C142.256 33.78 145.204 32.983 147.392 31.682C148.736 32.354 150.437 32.753 152.278 32.753C156.633 32.753 160.155 30.53 160.155 27.795C160.152 25.192 156.986 23.059 152.939 22.847Z" fill="#F2F2F2"/>
<path d="M247.367 108.254C247.367 108.562 247.231 108.84 247.011 109.041C246.789 109.241 246.485 109.367 246.145 109.367H206.57C205.896 109.367 205.344 108.868 205.344 108.254C205.344 107.946 205.483 107.669 205.705 107.468C205.927 107.267 206.232 107.141 206.569 107.141H246.144C246.823 107.141 247.367 107.64 247.367 108.254Z" fill="#0E538C"/>
<path d="M247.367 123.941C247.367 124.249 247.231 124.526 247.011 124.728C246.789 124.93 246.485 125.054 246.145 125.054H206.57C205.896 125.054 205.344 124.556 205.344 123.941C205.344 123.634 205.483 123.355 205.705 123.155C205.927 122.955 206.232 122.829 206.569 122.829H246.144C246.823 122.829 247.367 123.327 247.367 123.941Z" fill="#0E538C"/>
<path d="M246.633 139.63C246.633 139.937 246.497 140.215 246.274 140.416C246.053 140.616 245.748 140.741 245.411 140.741H205.836C205.159 140.741 204.61 140.244 204.61 139.63C204.61 139.322 204.747 139.045 204.969 138.843C205.19 138.642 205.498 138.518 205.835 138.518H245.41C246.084 138.518 246.633 139.015 246.633 139.63Z" fill="#0E538C"/>
<path d="M265.21 127.486H263.89
6V129.422H265.21V127.486Z" fill="#D3D3D3"/>
<path d="M270.633 131.204V161.567H269.319V131.654C269.319 130.268 268.194 129.145 266.809 129.145H265.211V127.794H267.227C269.108 127.795 270.633 129.322 270.633 131.204Z" fill="#F7F7F7"/>
<path d="M76.588 89.404H32.533V162.805H76.588V89.404Z" fill="#F2F2F2"/>
<path d="M70.66 117.189H57.642V124.623H70.66V117.189Z" fill="#03A4E7"/>
<path d="M70.66 106.771H57.642V114.202H70.66V106.771Z" fill="#03A4E7"/>
<path d="M70.66 95.661H57.642V103.092H70.66V95.661Z" fill="#03A4E7"/>
<path d="M51.484 117.189H38.466V124.623H51.484V117.189Z" fill="#03A4E7"/>
<path d="M51.484 106.771H38.466V114.202H51.484V106.771Z" fill="#03A4E7"/>
<path d="M51.484 95.661H38.466V103.092H51.484V95.661Z" fill="#03A4E7"/>
<path d="M70.66 128.222H57.642V135.655H70.66V128.222Z" fill="#03A4E7"/>
<path d="M51.484 128.222H38.466V135.655H51.484V128.222Z" fill="#03A4E7"/>
<path d="M214.071 116.774H76.59V163.27H214.071V116.774Z" fill="#03A4E7"/>
<path d="M119.108 109.818H78.719V116.862H119.108V109.818Z" fill="#F7F7F7"/>
<path d="M107.694 42.754H88.33L87.766 52.335H108.257L107.694 42.754Z" fill="#03A4E7"/>
<path d="M110.509 90.656L109.944 81.076L109.384 71.497L108.816 61.915L108.257 52.335H87.766L87.203 61.915L86.644 71.497L86.081 81.076L85.516 90.656L84.956 100.238H111.074L110.509 90.656Z" fill="#F7F7F7"/>
<path d="M84.389 109.818H111.637L111.074 100.238H84.956L84.389 109.818Z" fill="#03A4E7"/>
<path d="M115.318 123.736H86.411V142.187H115.318V123.736Z" fill="#03A4E7"/>
<path fill-rule="evenodd" clip-rule="evenodd" d="M116.053 142.832V123.092H85.675V142.832H116.053ZM91.605 142.187V138.181H96V142.187H91.605V142.187ZM91.605 137.63V133.236H96V137.63H91.605ZM91.605 132.687V128.291H96V132.687H91.605ZM91.605 127.742V123.736H96V127.742H91.605ZM91.057 123.736V127.742H86.411V123.736H91.057ZM91.057 128.292V132.688H86.411V128.292H91.057ZM91.057 133.236V137.63H86.411V133.236H91.057ZM91.057 138.182V142.188H86.411V138.182H91.057V138.182ZM96.552 142.187V138.181H100.799V142.187H96.552V142.187ZM96.552 137.63V133.236H100.799V137.63H96.552ZM96.552 132.687V128.291H100.799V132.687H96.552ZM96.552 127.742V123.736H100.799V127.742H96.552ZM106.295 142.187V138.181H110.688V142.187H106.295V142.187ZM106.295 137.63V133.236H110.688V137.63H106.295ZM106.295 132.687V128.291H110.688V132.687H106.295ZM106.295 127.742V123.736H110.688V127.742H106.295ZM105.741 123.736V127.742H101.347V123.736H105.741ZM105.741 128.292V132.688H101.347V128.292H105.741ZM105.741 133.236V137.63H101.347V133.236H105.741ZM105.741 138.182V142.188H101.347V138.182H105.741V138.182ZM111.236 142.187V138.181H115.318V142.187H111.236V142.187ZM111.236 137.63V133.236H115.318V137.63H111.236ZM111.236 132.687V128.291H115.318V132.687H111.236ZM111.236 127.742V123.736H115.318V127.742H111.236Z" fill="#F7F7F7"/>
<path d="M144.963 123.736H116.056V142.187H144.963V123.736Z" fill="#03A4E7"/>
<path fill-rule="evenodd" clip-rule="evenodd" d="M145.697 142.832V123.092H115.318V142.832H145.697ZM121.25 142.187V138.181H125.645V142.187H121.25V142.187ZM121.25 137.63V133.236H125.645V137.63H121.25ZM121.25 132.687V128.291H125.645V132.687H121.25ZM121.25 127.742V123.736H125.645V127.742H121.25ZM120.701 123.736V127.742H116.055V123.736H120.701ZM120.701 128.292V132.688H116.055V128.292H120.701ZM120.701 133.236V137.63H116.055V133.236H120.701ZM120.701 138.182V142.188H116.055V138.182H120.701V138.182ZM126.196 142.187V138.181H130.443V142.187H126.196V142.187ZM126.196 137.63V133.236H130.443V137.63H126.196ZM126.196 132.687V128.291H130.443V132.687H126.196ZM126.196 127.742V123.736H130.443V127.742H126.196ZM135.939 142.187V138.181H140.332V142.187H135.939V142.187ZM135.939 137.63V133.236H140.332V137.63H135.939ZM135.939 132.687V128.291H140.332V132.687H135.939ZM135.939 127.742V123.736H140.332V127.742H135.939ZM135.386 123.736V127.742H130.992V123.736H135.386ZM135.386 128.292V132.688H130.992V128.292H135.386ZM135.386 133.236V137.63H130.992V133.236H135.386ZM135.386 138.182V142.188H130.992V138.182H135.386V138.182ZM140.881 142.187V138.181H144.963V142.187H140.881V142.187ZM140.881 137.63V133.236H144.963V137.63H140.881ZM140.881 132.687V128.291H144.963V132.687H140.881ZM140.881 127.742V123.736H144.963V127.742H140.881Z" fill="#F7F7F7"/>
<path d="M174.607 123.736H145.7V142.187H174.607V123.736Z" fill="#03A4E7"/>
<path fill-rule="evenodd" clip-rule="evenodd" d="M175.342 142.832V123.092H144.963V142.832H175.342ZM150.895 142.187V138.181H155.29V142.187H150.895V142.187ZM150.895 137.63V133.236H155.29V137.63H150.895ZM150.895 132.687V128.291H155.29V132.687H150.895ZM150.895 127.742V123.736H155.29V127.742H150.895ZM150.346 123.736V127.742H145.7V123.736H150.346ZM150.346 128.292V132.688H145.7V128.292H150.346ZM150.346 133.236V137.63H145.7V133.236H150.346ZM150.346 138.182V142.188H145.7V138.182H150.346V138.182ZM155.84 142.187V138.181H160.088V142.187H155.84V142.187ZM155.84 137.63V133.236H160.088V137.63H155.84ZM155.84 132.687V128.291H160.088V132.687H155.84ZM155.84 127.742V123.736H160.088V127.742H155.84ZM165.584 142.187V138.181H169.977V142.187H165.584V142.187ZM165.584 137.63V133.236H169.977V137.63H165.584ZM165.584 132.687V128.291H169.977V132.687H165.584ZM165.584 127.742V123.736H169.977V127.742H165.584ZM165.03 123.736V127.742H160.636V123.736H165.03ZM165.03 128.292V132.688H160.636V128.292H165.03ZM165.03 133.236V137.63H160.636V133.236H165.03ZM165.03 138.182V142.188H160.636V138.182H165.03V138.182ZM170.525 142.187V138.181H174.607V142.187H170.525V142.187ZM170.525 137.63V133.236H174.607V137.63H170.525ZM170.525 132.687V128.291H174.607V132.687H170.525ZM170.525 127.742V123.736H174.607V127.742H170.525Z" fill="#F7F7F7"/>
<path d="M204.252 123.736H175.345V142.187H204.252V123.736Z" fill="#03A4E7"/>
<path fill-rule="evenodd" clip-rule="evenodd" d="M204.986 142.832V123.092H174.607V142.832H204.986ZM180.539 142.187V138.181H184.934V142.187H180.539V142.187ZM180.539 137.63V133.236H184.934V137.63H180.539ZM180.539 132.687V128.291H184.934V132.687H180.539ZM180.539 127.742V123.736H184.934V127.742H180.539ZM179.99 123.736V127.742H175.344V123.736H179.99ZM179.99 128.292V132.688H175.344V128.292H179.99ZM179.99 133.236V137.63H175.344V133.236H179.99ZM179.99 138.182V142.188H175.344V138.182H179.99V138.182ZM185.484 142.187V138.181H189.732V142.187H185.484V142.187ZM185.484 137.63V133.236H189.732V137.63H185.484ZM185.484 132.687V128.291H189.732V132.687H185.484ZM185.484 127.742V123.736H189.732V127.742H185.484ZM195.229 142.187V138.181H199.622V142.187H195.229V142.187ZM195.229 137.63V133.236H199.622V137.63H195.229ZM195.229 132.687V128.291H199.622V132.687H195.229ZM195.229 127.742V123.736H199.622V127.742H195.229ZM194.675 123.736V127.742H190.281V123.736H194.675ZM194.675 128.292V132.688H190.281V128.292H194.675ZM194.675 133.236V137.63H190.281V133.236H194.675ZM194.675 138.182V142.188H190.281V138.182H194.675V138.182ZM200.17 142.187V138.181H204.252V142.187H200.17V142.187ZM200.17 137.63V133.236H204.252V137.63H200.17ZM200.17 132.687V128.291H204.252V132.687H200.17ZM200.17 127.742V123.736H204.252V127.742H200.17Z" fill="#F7F7F7"/>
<path d="M51.483 143.641H38.82V163.271H51.483V143.641Z" fill="#03A4E7"/>
<path d="M70.48 143.641H57.82V163.271H70.48V143.641Z" fill="#03A4E7"/>
<path d="M116.337 116.774L118.488 115.181C119.165 114.679 135.486 102.861 165.207 102.861C194.92 102.861 211.241 114.679 211.918 115.181L214.071 116.774H116.337Z" fill="#0E538C"/>
<path fill-rule="evenodd" clip-rule="evenodd" d="M268.515 106.856C268.515 108.492 267.187 109.818 265.553 109.818H252.885C251.25 109.818 249.924 108.492 249.924 106.856C249.924 105.22 251.25 103.895 252.885 103.895H265.553C267.187 103.896 268.515 105.221 268.515 106.856Z" fill="#0E538C"/>
<path fill-rule="evenodd" clip-rule="evenodd" d="M267.265 118.799C267.265 119.696 266.536 120.424 265.64 120.424H252.336C251.44 120.424 250.711 119.696 250.711 118.799C250.711 117.902 251.44 117.175 252.336 117.175H265.64C266.535 117.175 267.265 117.901 267.265 118.799Z" fill="#0E538C"/>
<path fill-rule="evenodd" clip-rule="evenodd" d="M267.265 156.92C267.265 157.817 266.536 158.545 265.64 158.545H252.336C251.44 158.545 250.711 157.817 250.711 156.92C250.711 156.023 251.44 155.296 252.336 155.296H265.64C266.535 155.296 267.265 156.022 267.265 156.92Z" fill="#0E538C"/>
<path d="M287.242 160.692H15.774V164.916H287.242V160.692Z" fill="#D3D3D3"/>
</svg>
